<svg width="10" height="17" viewBox="0 0 10 17" fill="none" xmlns="http://www.w3.org/2000/svg">
<path d="M9.10696 7.73863L9.10676 7.73842L2.32672 0.81967L2.32662 0.819565C1.90807 0.392702 1.22573 0.393559 0.808133 0.821659L0.80802 0.821775C0.396678 1.24373 0.39785 1.92234 0.810067 2.34301L0.810077 2.34302L6.8436 8.50002L0.809854 14.657L0.809793 14.6571C0.397665 15.0778 0.396492 15.7561 0.807746 16.178L0.807905 16.1782C1.01559 16.3911 1.29136 16.5 1.56827 16.5C1.84435 16.5 2.11916 16.3918 2.32659 16.1803L2.32669 16.1802L9.10635 9.26202C9.10645 9.26191 9.10655 9.26181 9.10665 9.2617C9.10669 9.26167 9.10672 9.26164 9.10675 9.26161C9.30679 9.05773 9.41667 8.78324 9.41667 8.50003C9.41667 8.21604 9.30609 7.94207 9.10696 7.73863Z" fill="#6F6F6F" stroke="#6F6F6F"/>
</svg>
