<svg width="13" height="7" viewBox="0 0 13 7" fill="none" xmlns="http://www.w3.org/2000/svg">
<path d="M7.1146 6.26094L7.11439 6.26114C6.94571 6.41755 6.72422 6.5 6.49998 6.5C6.27651 6.5 6.05456 6.41816 5.88538 6.26094L7.1146 6.26094ZM7.1146 6.26094L11.7271 1.97881L11.7272 1.97872C12.0916 1.64018 12.0908 1.07525 11.7255 0.737664L11.7254 0.737555C11.3819 0.420304 10.8403 0.421146 10.4978 0.739152L10.4978 0.739162L6.49999 4.45058L2.50222 0.739024L2.50216 0.738964C2.15959 0.421033 1.6183 0.420191 1.27478 0.737366L1.27461 0.73752C1.09689 0.901765 1 1.12657 1 1.35891C1 1.5905 1.09622 1.81459 1.27289 1.9787L1.27299 1.97879L5.88496 6.26055L7.1146 6.26094Z" fill="#6F6F6F" stroke="#6F6F6F"/>
</svg>
