<svg width="24" height="24" viewBox="0 0 24 24" fill="none" xmlns="http://www.w3.org/2000/svg">
<path d="M7.58323 18.9C6.31823 18.9 5.29473 19.935 5.29473 21.2C5.29473 22.465 6.31823 23.5 7.58323 23.5C8.84823 23.5 9.88323 22.465 9.88323 21.2C9.88323 19.935 8.84823 18.9 7.58323 18.9ZM19.0832 18.9C17.8182 18.9 16.7947 19.935 16.7947 21.2C16.7947 22.465 17.8182 23.5 19.0832 23.5C20.3482 23.5 21.3832 22.465 21.3832 21.2C21.3832 19.935 20.3482 18.9 19.0832 18.9ZM8.84823 13.15H17.4157C18.2782 13.15 19.0372 12.6785 19.4282 11.9655L23.8672 3.904L21.8662 2.8L17.4157 10.85H9.34273L4.44373 0.5H0.683228V2.8H2.98323L7.12323 11.5285L5.57073 14.3345C4.73123 15.8755 5.83523 17.75 7.58323 17.75H21.3832V15.45H7.58323L8.84823 13.15Z" fill="black"/>
</svg>
