<svg xmlns="http://www.w3.org/2000/svg" width="15.655" height="16.19" viewBox="1 1.81 15.655 16.19"><path d="M5.779 14.762c-.876 0-1.585.728-1.585 1.619 0 .89.709 1.619 1.585 1.619s1.593-.729 1.593-1.619-.717-1.62-1.593-1.62Zm7.965 0c-.876 0-1.585.728-1.585 1.619 0 .89.709 1.619 1.585 1.619s1.593-.729 1.593-1.619-.717-1.62-1.593-1.62Zm-7.089-4.048h5.934c.597 0 1.123-.332 1.394-.834l2.58-4.97a.815.815 0 0 0-.318-1.085.787.787 0 0 0-1.083.332l-2.573 4.938H6.998L3.605 1.81H1.796A.805.805 0 0 0 1 2.619c0 .445.358.81.796.81h.797L5.46 9.573l-1.075 1.975c-.581 1.085.183 2.404 1.394 2.404h8.761a.805.805 0 0 0 .797-.81.805.805 0 0 0-.797-.809H5.78l.876-1.619Z" fill="#757575" fill-rule="evenodd" data-name="Контур 139"/></svg>