<svg version="1.2" xmlns="http://www.w3.org/2000/svg" viewBox="0 0 18 12" width="18" height="12"><defs><clipPath clipPathUnits="userSpaceOnUse" id="cp1"><path d="m-14-98h320v1024h-320z"/></clipPath></defs><style>.a{fill:#fff}</style><g clip-path="url(#cp1)"><path class="a" d="m6 11c0-0.6 0.4-1 1-1h10c0.5 0 1 0.4 1 1 0 0.5-0.5 1-1 1h-10c-0.6 0-1-0.5-1-1zm-3-5c0-0.6 0.4-1 1-1h13c0.5 0 1 0.4 1 1 0 0.5-0.5 1-1 1h-13c-0.6 0-1-0.5-1-1zm-2-6h16c0.5 0 1 0.4 1 1 0 0.5-0.5 1-1 1h-16c-0.6 0-1-0.5-1-1 0-0.6 0.4-1 1-1z"/></g></svg>