<svg width="48" height="39" viewBox="0 0 48 39" fill="none" xmlns="http://www.w3.org/2000/svg">
<path d="M42.8958 3.16663C42.8958 29.9941 42.9571 27.9116 42.7631 28.5548C42.5726 29.1835 42.1849 29.7343 41.6574 30.1259C41.1298 30.5174 40.4903 30.7289 39.8333 30.7291H3.08331C2.27109 30.7291 1.49213 30.4065 0.917798 29.8321C0.343468 29.2578 0.020813 28.4789 0.020813 27.6666V3.16663C0.020813 2.3544 0.343468 1.57544 0.917798 1.00111C1.49213 0.426781 2.27109 0.104126 3.08331 0.104126H39.8333C40.6455 0.104126 41.4245 0.426781 41.9988 1.00111C42.5732 1.57544 42.8958 2.3544 42.8958 3.16663Z" fill="#FD8223"/>
<path d="M42.8958 3.16665C42.8958 28.7998 42.9571 26.8908 42.7631 27.5339C42.1098 27.7279 44.9375 27.6667 6.14584 27.6667C5.33361 27.6667 4.55465 27.344 3.98032 26.7697C3.40599 26.1953 3.08334 25.4164 3.08334 24.6042C3.08334 -1.02898 3.02209 0.879982 3.21604 0.236857C3.86938 0.0428987 1.04167 0.104149 39.8333 0.104149C40.6456 0.104149 41.4245 0.426804 41.9989 1.00113C42.5732 1.57546 42.8958 2.35442 42.8958 3.16665Z" fill="#FF9848"/>
<path d="M0.020813 6.22913H42.8958V11.3333H0.020813V6.22913Z" fill="#374F68"/>
<path d="M42.8958 6.22913V9.29163H6.14581C5.33359 9.29163 4.55463 8.96897 3.9803 8.39464C3.40597 7.82031 3.08331 7.04135 3.08331 6.22913H42.8958Z" fill="#425B72"/>
<path d="M4.10413 16.4375H24.5208V20.5208H4.10413V16.4375Z" fill="#DAD7E5"/>
<path d="M24.5208 16.4375V18.4792H9.20829C8.66681 18.4792 8.1475 18.2641 7.76462 17.8812C7.38173 17.4983 7.16663 16.979 7.16663 16.4375H24.5208Z" fill="#EDEBF2"/>
<path d="M8.18748 27.6667H4.10415C3.8334 27.6667 3.57375 27.5591 3.38231 27.3677C3.19086 27.1762 3.08331 26.9166 3.08331 26.6458C3.08331 26.3751 3.19086 26.1154 3.38231 25.924C3.57375 25.7326 3.8334 25.625 4.10415 25.625H8.18748C8.45822 25.625 8.71787 25.7326 8.90932 25.924C9.10076 26.1154 9.20831 26.3751 9.20831 26.6458C9.20831 26.9166 9.10076 27.1762 8.90932 27.3677C8.71787 27.5591 8.45822 27.6667 8.18748 27.6667Z" fill="#EDEBF2"/>
<path d="M16.3542 27.6667H12.2708C12.0001 27.6667 11.7404 27.5591 11.549 27.3677C11.3576 27.1762 11.25 26.9166 11.25 26.6458C11.25 26.3751 11.3576 26.1154 11.549 25.924C11.7404 25.7326 12.0001 25.625 12.2708 25.625H16.3542C16.6249 25.625 16.8846 25.7326 17.076 25.924C17.2674 26.1154 17.375 26.3751 17.375 26.6458C17.375 26.9166 17.2674 27.1762 17.076 27.3677C16.8846 27.5591 16.6249 27.6667 16.3542 27.6667Z" fill="#EDEBF2"/>
<path d="M24.5208 27.6667H20.4375C20.1667 27.6667 19.9071 27.5591 19.7156 27.3677C19.5242 27.1762 19.4166 26.9166 19.4166 26.6458C19.4166 26.3751 19.5242 26.1154 19.7156 25.924C19.9071 25.7326 20.1667 25.625 20.4375 25.625H24.5208C24.7915 25.625 25.0512 25.7326 25.2426 25.924C25.4341 26.1154 25.5416 26.3751 25.5416 26.6458C25.5416 26.9166 25.4341 27.1762 25.2426 27.3677C25.0512 27.5591 24.7915 27.6667 24.5208 27.6667Z" fill="#EDEBF2"/>
<path d="M46.9792 22.5625C46.9792 28.1465 47.6121 32.4952 43.3348 36.5786C42.3154 37.5539 41.1295 38.3388 39.8333 38.8959C37.7118 37.9866 35.9039 36.4747 34.6336 34.5475C33.3634 32.6204 32.6867 30.3628 32.6875 28.0546V22.5625L39.8333 20.5209L46.9792 22.5625Z" fill="#9DCC6B"/>
<path d="M46.9792 22.5625C46.9792 28.1465 47.6121 32.4952 43.3348 36.5786C41.3624 35.6071 39.7018 34.1022 38.5416 32.2346C37.3813 30.367 36.7679 28.2116 36.7708 26.013V21.3988L39.8333 20.5209L46.9792 22.5625Z" fill="#B5E08C"/>
</svg>
