<svg width="29" height="23" viewBox="0 0 29 23" fill="none" xmlns="http://www.w3.org/2000/svg">
<path d="M14.375 0H4.3125C1.92625 0 0 1.92625 0 4.3125V15.8125C0 18.1987 1.92625 20.125 4.3125 20.125L2.875 21.5625V23H4.3125L7.1875 20.0819L10.0625 20.125V12.9375H2.875V2.84625L15.8125 2.875V5.75H18.6875V4.3125C18.6875 1.92625 16.7612 0 14.375 0ZM4.3125 14.375C5.10313 14.375 5.75 15.0219 5.75 15.8125C5.75 16.6031 5.10313 17.25 4.3125 17.25C3.52187 17.25 2.875 16.6031 2.875 15.8125C2.875 15.0219 3.52187 14.375 4.3125 14.375ZM26.6944 8.13625C26.4931 7.56125 25.9469 7.1875 25.3 7.1875H14.9644C14.3031 7.1875 13.7713 7.56125 13.5556 8.13625L11.5 14.0444L11.5144 21.965C11.5144 22.5113 11.96 23 12.5062 23H13.3975C13.9437 23 14.375 22.4538 14.375 21.9075V20.125H25.875V21.9075C25.875 22.4538 26.3206 23 26.8669 23H27.7437C28.29 23 28.7356 22.5113 28.7356 21.965L28.75 19.9956V14.0444L26.6944 8.13625ZM14.9644 8.625H25.3L26.7806 12.9375H13.4838L14.9644 8.625ZM14.375 17.25C13.5844 17.25 12.9375 16.6031 12.9375 15.8125C12.9375 15.0219 13.5844 14.375 14.375 14.375C15.1656 14.375 15.8125 15.0219 15.8125 15.8125C15.8125 16.6031 15.1656 17.25 14.375 17.25ZM25.875 17.25C25.0844 17.25 24.4375 16.6031 24.4375 15.8125C24.4375 15.0219 25.0844 14.375 25.875 14.375C26.6656 14.375 27.3125 15.0219 27.3125 15.8125C27.3125 16.6031 26.6656 17.25 25.875 17.25Z" fill="#F2F4F5"/>
</svg>
