<svg xmlns="http://www.w3.org/2000/svg" width="16.01" height="12" viewBox="2 4 16.01 12"><path d="M10.001 4h-5.6C3.071 4 2 5.005 2 6.25v6c0 1.245 1.072 2.25 2.4 2.25l-.616.577a.502.502 0 0 0 0 .75c.224.21.576.21.8 0L6 14.5h1.6v-3.75H4c-.224 0-.4-.165-.4-.375v-4.5c0-.21.176-.375.4-.375h6.401c.224 0 .4.165.4.375V7h1.6v-.75c0-1.245-1.072-2.25-2.4-2.25Zm-5.6 7.5c.44 0 .8.337.8.75 0 .412-.36.75-.8.75-.44 0-.8-.338-.8-.75 0-.413.36-.75.8-.75Zm12.457-3.255c-.112-.3-.416-.495-.776-.495h-5.753c-.368 0-.664.195-.784.495l-1.136 3.082v3.93c0 .413.36.743.8.743.44 0 .8-.338.8-.75v-.75h6.4v.75c0 .412.36.75.8.75.441 0 .793-.33.801-.743l-.008-3.93-1.144-3.082Zm-6.24.255h5.184c.168 0 .32.105.376.255l.552 1.5c.088.24-.104.495-.376.495h-6.281c-.272 0-.464-.255-.376-.495l.552-1.5c.04-.15.192-.255.368-.255ZM10 13c-.44 0-.8-.338-.8-.75 0-.413.36-.75.8-.75.44 0 .8.337.8.75 0 .412-.36.75-.8.75Zm6.4 0c-.44 0-.8-.338-.8-.75 0-.413.36-.75.8-.75.44 0 .8.337.8.75 0 .412-.36.75-.8.75Z" fill="#757575" fill-rule="evenodd" data-name="Контур 138"/></svg>