<svg width="26" height="23" viewBox="0 0 26 23" fill="none" xmlns="http://www.w3.org/2000/svg">
<path d="M18.794 0C16.6131 0 14.5199 1.01526 13.1537 2.61962C11.7875 1.01526 9.69429 0 7.51336 0C3.65287 0 0.619629 3.03324 0.619629 6.89373C0.619629 11.6316 4.88121 15.4921 11.3363 21.358L13.1537 23L14.9711 21.3455C21.4262 15.4921 25.6877 11.6316 25.6877 6.89373C25.6877 3.03324 22.6545 0 18.794 0ZM13.279 19.4905L13.1537 19.6158L13.0283 19.4905C7.06213 14.0883 3.12644 10.5161 3.12644 6.89373C3.12644 4.38692 5.00655 2.50681 7.51336 2.50681C9.44361 2.50681 11.3237 3.74768 11.988 5.46485H14.3319C14.9837 3.74768 16.8638 2.50681 18.794 2.50681C21.3008 2.50681 23.1809 4.38692 23.1809 6.89373C23.1809 10.5161 19.2452 14.0883 13.279 19.4905Z" fill="black"/>
</svg>
