<svg width="26" height="24" viewBox="0 0 26 24" fill="none" xmlns="http://www.w3.org/2000/svg">
<path d="M12.2522 22.5157L12.2519 22.5154C11.2055 21.6193 10.197 20.7775 9.30931 20.0366C9.30867 20.0361 9.30804 20.0356 9.3074 20.0351L9.30666 20.0344L9.30668 20.0344L9.30288 20.0312C6.68691 17.8479 4.47647 16.0008 2.94574 14.1919C1.25209 12.1903 0.5 10.3406 0.5 8.34617C0.5 6.38222 1.18696 4.58871 2.41493 3.28417C3.65631 1.96553 5.35971 1.237 7.22197 1.237C8.60391 1.237 9.86479 1.66263 10.9819 2.50879C11.5482 2.93782 12.0653 3.46575 12.5238 4.08667L12.9259 4.63132L13.3282 4.08675C13.7869 3.46572 14.3039 2.93781 14.8703 2.50883L14.8703 2.50881C15.9874 1.66264 17.2483 1.237 18.6303 1.237C20.4923 1.237 22.1959 1.96554 23.4373 3.28419C24.6653 4.5887 25.352 6.38219 25.352 8.34617C25.352 10.3406 24.6001 12.1903 22.9065 14.1917L22.9065 14.1917C21.3757 16.0008 19.1655 17.8477 16.5499 20.0308C15.6602 20.7732 14.6494 21.617 13.6 22.5158L13.5998 22.5159C13.4151 22.6742 13.1759 22.763 12.926 22.763C12.6761 22.763 12.437 22.6743 12.2522 22.5157ZM2.80001 3.60397L2.79997 3.60401C1.63976 4.83658 1.01418 6.52573 1.01418 8.34617C1.01418 10.2985 1.76407 12.0195 3.34824 13.8915C4.85705 15.6747 7.08645 17.5354 9.61132 19.6428L9.64413 19.6702L9.64412 19.6703L9.64831 19.6737L9.64886 19.6741C9.64954 19.6747 9.65023 19.6752 9.65091 19.6758C10.5423 20.4199 11.5501 21.2611 12.5986 22.159L12.9232 22.437L13.2483 22.1597C14.3044 21.259 15.3148 20.4154 16.2084 19.6699L16.2085 19.6698L16.2466 19.6381C18.769 17.5325 20.9962 15.6734 22.504 13.8915L22.1223 13.5685L22.504 13.8915C24.088 12.0195 24.8379 10.2985 24.8379 8.34617C24.8379 6.52573 24.2123 4.83658 23.0521 3.60401L22.688 3.94672L23.0521 3.60401C21.9067 2.38729 20.3325 1.72016 18.6303 1.72016C17.3702 1.72016 16.2096 2.11473 15.1928 2.88477L15.1927 2.88484C14.2943 3.56548 13.6773 4.41747 13.3202 5.00354C13.2381 5.13812 13.0945 5.2206 12.926 5.2206C12.7575 5.2206 12.6139 5.13812 12.5319 5.00354C12.1748 4.41737 11.5579 3.5654 10.6593 2.8848L10.6593 2.88477C9.64246 2.11473 8.48184 1.72016 7.22197 1.72016C5.51953 1.72016 3.94551 2.3873 2.80001 3.60397Z" fill="#6F6F6F" fill-opacity="0.5" stroke="#FD8223"/>
</svg>
