<svg width="14" height="20" viewBox="0 0 14 20" fill="none" xmlns="http://www.w3.org/2000/svg">
<path d="M6.70833 0C2.99958 0 0 2.99958 0 6.70833C0 11.7396 6.70833 19.1667 6.70833 19.1667C6.70833 19.1667 13.4167 11.7396 13.4167 6.70833C13.4167 2.99958 10.4171 0 6.70833 0ZM1.91667 6.70833C1.91667 4.06333 4.06333 1.91667 6.70833 1.91667C9.35333 1.91667 11.5 4.06333 11.5 6.70833C11.5 9.46833 8.74 13.5987 6.70833 16.1767C4.715 13.6179 1.91667 9.43958 1.91667 6.70833Z" fill="#FD8223"/>
<path d="M6.70833 9.10417C8.03152 9.10417 9.10417 8.03152 9.10417 6.70833C9.10417 5.38515 8.03152 4.3125 6.70833 4.3125C5.38515 4.3125 4.3125 5.38515 4.3125 6.70833C4.3125 8.03152 5.38515 9.10417 6.70833 9.10417Z" fill="#FD8223"/>
</svg>
