<svg width="165" height="42" viewBox="0 0 165 42" fill="none" xmlns="http://www.w3.org/2000/svg">
<path d="M109.834 18.1032C109.696 19.2658 109.386 20.6397 108.904 21.9431C108.859 22.0371 108.824 22.131 108.801 22.225L108.698 22.4716C108.56 22.7534 108.216 23 107.872 23H101.264H101.161C100.851 23 100.714 22.7886 100.851 22.4716V22.4363C101.505 21.0624 101.987 19.4771 102.125 18.068C102.228 17.0111 101.815 15.8134 101.299 15.2849C100.645 14.5451 99.1995 13.9462 97.582 13.8053C95.3451 13.5587 93.2458 13.4882 90.8024 13.6291C90.2174 13.6643 89.4602 13.6996 88.8408 13.7348C88.7261 13.7348 88.6113 13.7466 88.4966 13.7701C87.7395 13.8405 87.0856 13.911 87.0856 13.911C86.9939 13.9344 86.9021 13.9462 86.8103 13.9462C86.7186 13.9697 86.6153 13.9932 86.5006 14.0167H85.9155H77.1399H76.3139C76.0042 14.0167 75.9009 13.8053 76.1074 13.5587C76.1074 13.5587 76.6581 12.8541 76.7269 12.7837C76.9334 12.5488 77.1399 12.3139 77.3463 12.0791C80.9255 8.8028 86.122 7.32321 91.9725 7.0766C97.4444 6.79477 102.607 7.25273 105.842 9.08463C108.87 10.5995 110.556 13.8758 109.834 18.1032Z" fill="#F2F4F5"/>
<path fill-rule="evenodd" clip-rule="evenodd" d="M67.5852 26.4351C66.8078 28.5511 65.5004 30.2509 63.769 31.2915C61.7195 32.471 59.2108 32.8179 59.2108 32.8179C58.8927 32.8873 58.1154 32.9566 57.9387 32.9566C57.126 33.026 52.7091 32.9913 52.7091 32.9913C52.3911 32.9913 51.8611 32.9913 51.5077 32.9913L33.4516 32.9566C33.1336 32.9566 32.9216 32.7138 33.0276 32.4016L36.9498 18.318C37.0204 18.0058 37.3738 17.7629 37.6918 17.7629L59.9528 17.6588C60.4475 17.6588 60.6948 17.6242 61.2249 17.4508C61.2249 17.4508 62.5676 17.1038 62.4969 15.5775C62.4616 15.0572 61.7549 14.4675 61.1189 14.4328C60.4828 14.4328 38.5398 14.4675 38.5398 14.4675C38.2218 14.4675 38.0098 14.19 38.1158 13.9125L39.7765 8.57039C39.8826 8.29288 40.2359 8.01542 40.5539 8.01542C40.5539 8.01542 62.8149 7.98073 63.4156 8.01542C64.1223 8.08479 64.935 8.2235 65.5711 8.39694C68.2918 9.19479 70.3413 10.9293 69.9526 14.2594C69.7052 16.3407 68.6452 18.2486 67.2671 19.1852C66.6664 19.6361 65.9244 19.983 65.9244 19.983C65.6064 20.1218 65.5711 20.3299 65.9244 20.5034C67.3378 21.2665 68.8219 23.0703 67.5852 26.4351ZM59.9528 23.7641C59.8468 23.4519 59.4581 23.2438 58.5747 23.2785L44.1581 23.2438C43.8401 23.2438 43.5221 23.2784 43.4514 23.3131L43.416 23.4172C43.1334 24.4926 42.674 26.0882 42.674 26.0882C42.568 26.4004 42.78 26.6433 43.098 26.6433H55.5006C57.0553 26.6433 58.6454 26.6432 59.3874 26.0882C60.5182 25.1169 60.0941 24.111 59.9528 23.7641Z" fill="#F2F4F5"/>
<path d="M17.8647 18.4702C18.0645 18.2015 18.4308 18 18.7638 18H27.6545C27.9875 18 28.0874 18.2015 27.9209 18.4702L14.1353 39.5297C13.9355 39.7984 13.5692 40 13.2362 40H4.34548C4.01249 40 3.9126 39.7984 4.07909 39.5297L17.8647 18.4702Z" fill="#F2F4F5"/>
<path d="M39.392 0C39.7139 0 40 0.243764 40 0.592023V0.661743C40 1.01 39.8212 1.49755 39.6423 1.77616L31.6667 13.5125C31.4879 13.7911 31.0587 14 30.7368 14H21.1518C20.8299 14 20.7226 13.7911 20.9014 13.5125L24.5852 8.04482C24.7641 7.80104 24.6568 7.55721 24.3349 7.55721H0.336502C0.0146163 7.55721 -0.0926793 7.34828 0.0861462 7.06968L4.59255 0.487614C4.77137 0.209006 5.20056 0 5.52244 0H39.392Z" fill="#EF6519"/>
<path d="M163.481 14H145.702H135L136.623 8H165L163.481 14Z" fill="#F2F4F5"/>
<path d="M135 26L133.365 33H110L111.601 26H119.264H135Z" fill="#F2F4F5"/>
<path d="M120.344 23H113L116.688 8H124L120.344 23Z" fill="#F2F4F5"/>
<path d="M144.611 18H152L148.389 33H141L144.611 18Z" fill="#F2F4F5"/>
<path d="M105.884 26.8664C105.884 26.8664 105.872 26.8664 105.85 26.8664C104.233 28.7451 102.238 30.1295 99.7953 31.0853C99.6806 31.1293 99.566 31.1732 99.4513 31.2171C98.385 31.6127 97.2498 31.8764 96.149 32.1401C94.9451 32.4367 91.918 32.8982 90.37 32.9641C89.0285 33.03 85.1414 32.997 84.0062 32.9311C82.8367 32.8652 80.532 32.5686 79.7064 32.3379C76.7137 31.5468 74.065 30.3602 72.8266 28.1848C71.6226 26.0094 71.7602 22.7133 73.0674 19.0217C73.205 18.6592 73.2738 18.4944 73.2738 18.4944C73.377 18.2307 73.7554 18 74.065 18H74.1682H80.7383H80.7727C81.0823 18 81.2199 18.2307 81.0823 18.4944C81.0823 18.4944 81.0594 18.5273 81.0135 18.5932C80.9906 18.6591 80.9562 18.7251 80.9103 18.791C80.9103 18.835 80.8989 18.8789 80.8759 18.9228C80.8071 19.0327 80.7498 19.1536 80.7039 19.2854C80.188 20.6698 79.8096 22.153 79.8784 23.2737C80.016 26.7016 84.4534 26.7675 89.2005 26.7675C89.682 26.7675 90.1636 26.7675 90.6452 26.7675C92.09 26.7345 93.4659 26.6686 94.7387 26.4709H105.678C106.022 26.4709 106.09 26.6356 105.884 26.8664Z" fill="#F2F4F5"/>
<path d="M35.8458 36.0125L34.6239 40.516H34.0653L35.1825 36.5012H33.2274L32.1103 40.516H31.5866L32.8085 36.0125H35.8458Z" fill="#F2F4F5"/>
<path fill-rule="evenodd" clip-rule="evenodd" d="M36.6836 38.7704C36.7535 38.0023 37.1026 37.1645 37.6611 36.6059C38.0801 36.187 38.6736 35.9426 39.2671 35.9426C40.489 35.9426 40.9079 36.8154 40.8032 37.7929C40.7333 38.561 40.4191 39.3639 39.8606 39.9225C39.4416 40.3414 38.883 40.5858 38.2197 40.5858C37.0677 40.5858 36.6138 39.713 36.6836 38.7704ZM40.2446 37.8278C40.2795 37.1645 40.1398 36.4314 39.1623 36.4314C38.1499 36.4314 37.3469 37.6882 37.2771 38.7006C37.2073 39.4337 37.4866 40.132 38.3594 40.132C39.302 40.132 40.1398 38.9101 40.2446 37.8278Z" fill="#F2F4F5"/>
<path d="M43.4215 36.0125L42.8629 38.0373H43.0026L45.0274 36.0125H45.7257L43.5263 38.1071C44.1198 38.2468 44.3292 38.7006 44.399 39.3988C44.434 39.7829 44.4689 40.2018 44.5387 40.516H43.9801C43.9103 40.2716 43.8754 39.8177 43.8754 39.4686C43.7706 38.7704 43.5612 38.4562 42.8979 38.4562H42.7582L42.1996 40.516H41.676L42.8979 36.0125H43.4215Z" fill="#F2F4F5"/>
<path d="M47.3665 36.0125L47.7506 38.0373C47.7855 38.2817 47.8553 38.561 47.8902 38.8054C48.0997 38.4562 48.2393 38.1769 48.379 37.8976L49.4263 36.0125H50.0547L48.763 38.1769C48.379 38.8752 47.8553 39.7829 47.3665 40.2018C47.0523 40.4811 46.7731 40.5859 46.4589 40.5859C46.2843 40.5859 46.1447 40.5509 46.0399 40.4811L46.1796 40.0272C46.2494 40.0622 46.3541 40.0971 46.4938 40.0971C46.8778 40.0971 47.192 39.7131 47.4015 39.364C47.4713 39.2941 47.4713 39.2243 47.4364 39.1195L46.7731 36.0125H47.3665Z" fill="#F2F4F5"/>
<path d="M54.3836 36.0125L53.1617 40.516H52.6032L53.7203 36.5012H51.7653L50.6481 40.516H50.1245L51.3463 36.0125H54.3836Z" fill="#F2F4F5"/>
<path fill-rule="evenodd" clip-rule="evenodd" d="M55.9896 39.0847L55.1517 40.516H54.5582L57.2464 36.0125H57.9097L58.1541 40.516H57.5955L57.5257 39.0847H55.9896ZM57.5257 38.6657L57.4559 37.3391C57.4559 37.1296 57.4559 36.7805 57.4559 36.5361H57.421C57.2813 36.7805 57.1417 37.0598 57.002 37.3391L56.234 38.6657H57.5257Z" fill="#F2F4F5"/>
<path d="M62.1689 35C62.134 35.2095 62.2387 35.384 62.4831 35.384C62.7624 35.384 62.9369 35.2444 63.0068 35H63.4606C63.3209 35.4189 62.9718 35.6982 62.4482 35.6982C61.8896 35.6982 61.715 35.384 61.7499 35H62.1689ZM61.2612 36.0124L60.7026 38.0373C60.528 38.7006 60.3884 39.2242 60.1789 39.8177H60.2139C60.563 39.3289 60.9121 38.8751 61.3659 38.3514L63.3559 36.0124H63.9144L62.6925 40.5159H62.1689L62.7275 38.4212C62.902 37.7928 63.0417 37.339 63.2162 36.7804C62.8671 37.2692 62.4482 37.7929 62.0292 38.2816L60.144 40.5159H59.5156L60.7375 36.0124H61.2612Z" fill="#F2F4F5"/>
<path d="M68.2783 36.0125L67.7198 38.0373C67.5452 38.7006 67.3706 39.2243 67.1961 39.8177C67.5452 39.329 67.8943 38.8752 68.3482 38.3515L70.3381 36.0125H70.8967L69.7097 40.516H69.1511L69.7446 38.4213C69.9192 37.7929 70.0239 37.3391 70.2334 36.7805H70.1985C69.8493 37.2692 69.4304 37.7929 69.0115 38.2817L67.1263 40.516H66.5328L67.7547 36.0125H68.2783Z" fill="#F2F4F5"/>
<path d="M77.7742 36.0125L76.5524 40.516H75.9938L77.1109 36.5012H75.1559L74.0387 40.516H73.4802L74.7021 36.0125H77.7742Z" fill="#F2F4F5"/>
<path fill-rule="evenodd" clip-rule="evenodd" d="M79.5547 36.0823C79.7991 36.0474 80.1831 35.9775 80.5322 35.9775C80.9861 35.9775 81.3701 36.0823 81.6145 36.3267C81.8007 36.5128 81.8821 36.7922 81.8589 37.1646C81.824 37.6533 81.5447 38.0723 81.2305 38.3167C80.8464 38.596 80.3577 38.7356 79.834 38.7356C79.6711 38.7356 79.5198 38.7239 79.3802 38.7006L78.8914 40.516H78.3677L79.5547 36.0823ZM79.4849 38.2119C79.6245 38.2468 79.7642 38.2817 79.9387 38.2817C80.6719 38.2817 81.2305 37.793 81.3003 37.1646C81.3352 36.6409 80.9512 36.4314 80.4624 36.4314C80.2297 36.4314 80.0668 36.4431 79.9737 36.4663L79.4849 38.2119Z" fill="#F2F4F5"/>
<path fill-rule="evenodd" clip-rule="evenodd" d="M82.7666 38.7704C82.8364 38.0023 83.2204 37.1645 83.779 36.6059C84.1979 36.187 84.7914 35.9426 85.35 35.9426C86.5719 35.9426 86.9908 36.8154 86.921 37.7929C86.8512 38.561 86.5021 39.3639 85.9435 39.9225C85.5245 40.3414 84.966 40.5858 84.3376 40.5858C83.1506 40.5858 82.6967 39.713 82.7666 38.7704ZM86.3275 37.8278C86.3624 37.1645 86.2228 36.4314 85.2453 36.4314C84.2328 36.4314 83.4299 37.6882 83.3601 38.7006C83.2902 39.4337 83.5695 40.132 84.4423 40.132C85.3849 40.132 86.2228 38.9101 86.3275 37.8278Z" fill="#F2F4F5"/>
<path fill-rule="evenodd" clip-rule="evenodd" d="M91.8085 36.0125L90.7263 40.0622H91.1103L90.6216 41.5983H90.1677L90.447 40.516H87.7937L87.4446 41.5983H86.9908L87.3748 40.0622H87.689C88.0381 39.6433 88.2825 39.2243 88.5269 38.8054C88.7713 38.2817 88.9458 37.758 89.1204 37.1994L89.4346 36.0125H91.8085ZM89.5742 37.374C89.4346 37.8976 89.26 38.4213 89.0156 38.9101C88.8062 39.2941 88.5618 39.713 88.2476 40.0272H90.1677L91.1452 36.5012H89.8186L89.5742 37.374Z" fill="#F2F4F5"/>
<path fill-rule="evenodd" clip-rule="evenodd" d="M93.589 39.0847L92.7511 40.516H92.1577L94.8458 36.0125H95.5091L95.7535 40.516H95.1949L95.1251 39.0847H93.589ZM95.1251 38.6657L95.0553 37.3391C95.0553 37.1296 95.0553 36.7805 95.0553 36.5361H95.0204C94.8807 36.7805 94.7411 37.0598 94.6014 37.3391L93.8334 38.6657H95.1251Z" fill="#F2F4F5"/>
<path fill-rule="evenodd" clip-rule="evenodd" d="M98.3369 36.0823C98.6162 36.0474 98.9304 35.9775 99.2796 35.9775C99.7334 35.9775 100.083 36.0823 100.292 36.2918C100.501 36.478 100.595 36.7107 100.571 36.99C100.501 37.5835 100.013 38.0024 99.5239 38.1072V38.1421C99.908 38.2468 100.187 38.5959 100.152 39.1196C100.117 39.5734 99.8381 39.9574 99.5588 40.1669C99.1748 40.4462 98.6512 40.5509 98.0577 40.5509C97.6736 40.5509 97.3245 40.5161 97.15 40.4811L98.3369 36.0823ZM97.8133 40.0622C97.918 40.0622 98.0926 40.0971 98.2322 40.0971C98.8955 40.0971 99.5239 39.8178 99.5938 39.0847C99.6287 38.561 99.2097 38.3515 98.721 38.3515H98.2671L97.8133 40.0622ZM98.3719 37.8977H98.7908C99.4192 37.8977 99.9429 37.5835 99.9778 37.0249C100.013 36.6059 99.7334 36.3965 99.2446 36.3965C99.0352 36.3965 98.8606 36.4314 98.7559 36.4314L98.3719 37.8977Z" fill="#F2F4F5"/>
<path fill-rule="evenodd" clip-rule="evenodd" d="M102.422 39.0847L101.584 40.516H100.99L103.678 36.0125H104.342L104.586 40.516H104.027L103.958 39.0847H102.422ZM103.958 38.6657L103.888 37.3391C103.888 37.1296 103.853 36.7805 103.853 36.5361C103.713 36.7805 103.574 37.0598 103.434 37.3391L102.631 38.6657H103.958Z" fill="#F2F4F5"/>
<path d="M108.601 35C108.566 35.2095 108.636 35.384 108.915 35.384C109.194 35.384 109.369 35.2444 109.439 35H109.858C109.753 35.4189 109.404 35.6982 108.88 35.6982C108.322 35.6982 108.112 35.384 108.182 35H108.601ZM107.693 36.0124L107.135 38.0373C106.96 38.7006 106.82 39.2242 106.611 39.8177C106.96 39.3289 107.344 38.8751 107.763 38.3514L109.753 36.0124H110.346L109.125 40.5159H108.601L109.159 38.4212C109.334 37.7928 109.474 37.339 109.648 36.7804C109.299 37.2692 108.88 37.7929 108.461 38.2816L106.541 40.5159H105.948L107.17 36.0124H107.693Z" fill="#F2F4F5"/>
<path d="M113.838 37.9326H114.082C114.606 37.9326 115.269 37.6532 115.304 37.0248C115.339 36.6408 115.094 36.3965 114.71 36.3965C114.396 36.3965 114.082 36.5361 113.838 36.6757L113.733 36.2568C114.012 36.0822 114.431 35.9426 114.85 35.9426C115.443 35.9426 115.932 36.2917 115.897 36.955C115.828 37.5834 115.339 38.0024 114.78 38.1421C115.234 38.2468 115.548 38.6308 115.513 39.1894C115.443 40.0622 114.641 40.5858 113.768 40.5858C113.314 40.5858 112.93 40.4461 112.651 40.2716L112.895 39.8527C113.035 39.9574 113.419 40.132 113.803 40.132C114.396 40.132 114.885 39.7828 114.955 39.1544C114.99 38.5959 114.466 38.3515 113.977 38.3515L113.733 38.3864L113.838 37.9326Z" fill="#F2F4F5"/>
<path fill-rule="evenodd" clip-rule="evenodd" d="M117.748 39.0847L116.91 40.516H116.316L119.004 36.0125H119.668L119.912 40.516H119.354L119.284 39.0847H117.748ZM119.284 38.6657L119.214 37.3391C119.214 37.1296 119.214 36.7805 119.214 36.5361C119.039 36.7805 118.935 37.0598 118.76 37.3391L117.992 38.6657H119.284Z" fill="#F2F4F5"/>
<path d="M125.568 36.0125L124.346 40.516H123.787L124.904 36.5012H122.949L121.832 40.516H121.274L122.496 36.0125H125.568Z" fill="#F2F4F5"/>
<path d="M127.732 36.0125L127.383 37.3042C127.348 37.4438 127.313 37.6533 127.278 37.8278C127.243 38.2468 127.523 38.4562 127.977 38.4562C128.361 38.4562 128.745 38.3166 128.884 38.1769L129.478 36.0125H130.036L128.814 40.5509H128.256L128.78 38.6657H128.745C128.535 38.7705 128.151 38.9101 127.732 38.9101C127.034 38.9101 126.65 38.561 126.72 37.9326C126.72 37.7231 126.79 37.5136 126.859 37.3042L127.209 36.0125H127.732Z" fill="#F2F4F5"/>
<path fill-rule="evenodd" clip-rule="evenodd" d="M131.607 39.0847L130.804 40.516H130.211L132.899 36.0125H133.528L133.807 40.516H133.248L133.178 39.0847H131.607ZM133.143 38.6657L133.074 37.3391C133.039 37.1296 133.039 36.7805 133.039 36.5361C132.899 36.7805 132.759 37.0598 132.62 37.3391L131.817 38.6657H133.143Z" fill="#F2F4F5"/>
<path d="M138.136 40.3763C137.857 40.4811 137.472 40.5858 136.949 40.5858C135.832 40.5858 135.203 39.8527 135.308 38.7355C135.378 37.8627 135.762 37.0598 136.425 36.571C136.914 36.1521 137.507 35.9426 138.171 35.9426C138.659 35.9426 139.009 36.0823 139.113 36.187L138.904 36.6059C138.729 36.5012 138.45 36.4314 138.031 36.4314C137.577 36.4314 137.088 36.606 136.704 36.9202C136.251 37.3391 135.936 37.9675 135.901 38.6308C135.832 39.4337 136.146 40.097 137.123 40.097C137.472 40.097 137.857 40.0272 138.101 39.9225L138.136 40.3763Z" fill="#F2F4F5"/>
<path d="M141.417 36.5012H140.126L140.23 36.0125H143.407L143.303 36.5012H141.976L140.894 40.516H140.335L141.417 36.5012Z" fill="#F2F4F5"/>
<path d="M145.258 36.0125L144.699 38.0373C144.525 38.7006 144.385 39.2243 144.175 39.8177C144.525 39.329 144.909 38.8752 145.328 38.3515L147.317 36.0125H147.911L146.689 40.516H146.165L146.724 38.4213C146.899 37.7929 147.038 37.3391 147.213 36.7805C146.864 37.2692 146.445 37.7929 146.026 38.2817L144.106 40.516H143.512L144.734 36.0125H145.258Z" fill="#F2F4F5"/>
</svg>
