<svg version="1.2" xmlns="http://www.w3.org/2000/svg" viewBox="0 0 16 14" width="16" height="14"><defs><clipPath clipPathUnits="userSpaceOnUse" id="cp1"><path d="m-257-97h320v1024h-320z"/></clipPath></defs><style>.a{fill:#999}</style><g clip-path="url(#cp1)"><path fill-rule="evenodd" class="a" d="m11.9 1.5h2.5c0.2 0 0.5 0.1 0.5 0.1 0.7 0.3 1.1 0.9 1.1 1.5v9.2c0 0.9-0.7 1.6-1.6 1.6h-12.8c-0.9 0-1.6-0.7-1.6-1.6v-9.2c0-0.9 0.7-1.6 1.6-1.6h2.5l1.5-1.5h4.8zm-5.6 0l-1.4 1.5h-3.3v9.3h12.8v-9.3h-3.2l-1.5-1.5zm5.7 6.2c0 2.1-1.8 3.8-4 3.8-2.2 0-4-1.7-4-3.8 0-2.2 1.8-3.9 4-3.9 2.2 0 4 1.7 4 3.9zm-6.4 0c0 1.2 1.1 2.3 2.4 2.3 1.3 0 2.4-1.1 2.4-2.3 0-1.3-1.1-2.3-2.4-2.3-1.3 0-2.4 1-2.4 2.3z"/></g></svg>