<svg width="23" height="24" viewBox="0 0 23 24" fill="none" xmlns="http://www.w3.org/2000/svg">
<path d="M18.8853 0.5H4.11466C1.84584 0.5 0 2.34584 0 4.61466V19.3854C0 21.6542 1.84584 23.5 4.11466 23.5H18.8854C21.1542 23.5 23 21.6542 23 19.3853V4.61466C23 2.34584 21.1542 0.5 18.8853 0.5ZM21.6523 19.3853C21.6523 20.9111 20.4111 22.1523 18.8853 22.1523H4.11466C2.58894 22.1523 1.34766 20.9111 1.34766 19.3853V4.61466C1.34766 3.08894 2.58894 1.84766 4.11466 1.84766H18.8854C20.4111 1.84766 21.6523 3.08894 21.6523 4.61466V19.3853Z" fill="#6F6F6F" fill-opacity="0.7"/>
<path d="M19.4391 5.55212H9.17625C8.8941 4.7141 8.10145 4.10864 7.1695 4.10864C6.23755 4.10864 5.4449 4.7141 5.16275 5.55212H3.56079C3.18866 5.55212 2.88696 5.85381 2.88696 6.22595C2.88696 6.59808 3.18866 6.89977 3.56079 6.89977H5.1628C5.44495 7.73779 6.2376 8.34325 7.16954 8.34325C8.10149 8.34325 8.89414 7.73779 9.17629 6.89977H19.4392C19.8113 6.89977 20.113 6.59808 20.113 6.22595C20.113 5.85381 19.8113 5.55212 19.4391 5.55212ZM7.1695 6.99559C6.74512 6.99559 6.39985 6.65032 6.39985 6.22595C6.39985 5.80157 6.74512 5.4563 7.1695 5.4563C7.59388 5.4563 7.93915 5.80157 7.93915 6.22595C7.93915 6.65032 7.59388 6.99559 7.1695 6.99559Z" fill="#6F6F6F" fill-opacity="0.7"/>
<path d="M19.4391 11.3263H17.8371C17.555 10.4883 16.7623 9.88281 15.8304 9.88281C14.8985 9.88281 14.1058 10.4883 13.8237 11.3263H3.56079C3.18866 11.3263 2.88696 11.628 2.88696 12.0001C2.88696 12.3722 3.18866 12.6739 3.56079 12.6739H13.8237C14.1058 13.512 14.8985 14.1174 15.8304 14.1174C16.7623 14.1174 17.555 13.512 17.8372 12.6739H19.4392C19.8113 12.6739 20.113 12.3722 20.113 12.0001C20.113 11.628 19.8113 11.3263 19.4391 11.3263ZM15.8304 12.7698C15.4061 12.7698 15.0608 12.4245 15.0608 12.0001C15.0608 11.5757 15.4061 11.2305 15.8304 11.2305C16.2548 11.2305 16.6001 11.5757 16.6001 12.0001C16.6001 12.4245 16.2548 12.7698 15.8304 12.7698Z" fill="#6F6F6F" fill-opacity="0.7"/>
<path d="M19.4391 17.1002H12.0632C11.7811 16.2622 10.9884 15.6567 10.0565 15.6567C9.12455 15.6567 8.3319 16.2622 8.04974 17.1002H3.56079C3.18866 17.1002 2.88696 17.4019 2.88696 17.774C2.88696 18.1462 3.18866 18.4479 3.56079 18.4479H8.04974C8.3319 19.2859 9.12455 19.8913 10.0565 19.8913C10.9884 19.8913 11.7811 19.2859 12.0632 18.4479H19.4392C19.8113 18.4479 20.113 18.1462 20.113 17.774C20.113 17.4019 19.8113 17.1002 19.4391 17.1002ZM10.0565 18.5437C9.63212 18.5437 9.28685 18.1985 9.28685 17.7741C9.28685 17.3497 9.63212 17.0044 10.0565 17.0044C10.4809 17.0044 10.8261 17.3497 10.8261 17.774C10.8261 18.1984 10.4809 18.5437 10.0565 18.5437Z" fill="#6F6F6F" fill-opacity="0.7"/>
</svg>
