<svg width="20" height="20" viewBox="0 0 20 20" fill="none" xmlns="http://www.w3.org/2000/svg">
<g clip-path="url(#clip0_5_120)">
<path d="M19.9479 7.28127C19.817 6.87629 19.4578 6.58865 19.0328 6.55035L13.2602 6.0262L10.9776 0.683504C10.8093 0.291953 10.426 0.0384979 10.0001 0.0384979C9.57422 0.0384979 9.19091 0.291953 9.0226 0.684419L6.73998 6.0262L0.966514 6.55035C0.542309 6.58957 0.184023 6.87629 0.0523365 7.28127C-0.0793503 7.68625 0.0422654 8.13044 0.363166 8.41045L4.72653 12.2371L3.43988 17.9049C3.34573 18.3216 3.50747 18.7524 3.85325 19.0023C4.0391 19.1366 4.25655 19.2049 4.47582 19.2049C4.66488 19.2049 4.85242 19.154 5.02073 19.0533L10.0001 16.0773L14.9777 19.0533C15.3419 19.2724 15.801 19.2524 16.146 19.0023C16.492 18.7516 16.6536 18.3207 16.5594 17.9049L15.2728 12.2371L19.6361 8.41121C19.957 8.13044 20.0796 7.68701 19.9479 7.28127Z" fill="#FFC107"/>
</g>
<defs>
<clipPath id="clip0_5_120">
<rect width="20" height="20" fill="white"/>
</clipPath>
</defs>
</svg>
