<svg width="24" height="24" viewBox="0 0 24 24" fill="none" xmlns="http://www.w3.org/2000/svg">
<path d="M24 5.27036C22.679 5.33058 22.7078 5.32566 22.5585 5.33803L23.3409 3.12819C23.3409 3.12819 20.8988 4.01672 20.2798 4.17566C18.6539 2.73027 16.2372 2.66641 14.5094 3.71674C13.0945 4.57706 12.3351 6.05446 12.5884 7.78129C9.83471 7.40334 7.5146 6.1123 5.68284 3.9359L5.10349 3.24767L4.67059 4.03399C4.12344 5.02759 3.94176 6.16364 4.15885 7.23283C4.24793 7.67147 4.39934 8.08983 4.60906 8.48156L4.11207 8.29108L4.05311 9.11242C3.99335 9.94676 4.27421 10.9207 4.80453 11.7175C4.95385 11.9419 5.14611 12.1883 5.3898 12.4314L5.13297 12.3924L5.44636 13.3335C5.85828 14.5701 6.71384 15.5267 7.82414 16.0586C6.71528 16.524 5.8195 16.8209 4.34711 17.3L3 17.738L4.24425 18.4109C4.71865 18.6674 6.395 19.5243 8.05133 19.7813C11.7331 20.3524 15.8784 19.8873 18.6691 17.4014C21.0196 15.3076 21.7909 12.3292 21.6307 9.22969C21.6065 8.76046 21.7365 8.31263 21.9966 7.96891C22.5178 7.28069 23.9968 5.27495 24 5.27036ZM21.0127 7.23996C20.5806 7.81061 20.3642 8.5394 20.403 9.29181C20.5646 12.4182 19.7046 14.8428 17.8465 16.4978C15.6761 18.4313 12.1752 19.1902 8.24183 18.5799C7.5295 18.4695 6.7933 18.2221 6.184 17.9751C7.41847 17.555 8.37177 17.1805 9.91129 16.4598L12.0604 15.4537L9.68763 15.3035C8.55105 15.2315 7.60464 14.6867 7.0229 13.8021C7.33179 13.7844 7.62964 13.7349 7.9262 13.6532L10.1893 13.0298L7.9073 12.477C6.79843 12.2084 6.16637 11.5522 5.83136 11.0489C5.61138 10.7182 5.46767 10.3794 5.38147 10.067C5.61026 10.1277 5.87702 10.171 6.30721 10.2131L8.41935 10.4198L6.74588 9.12858C5.54008 8.19838 5.05687 6.80085 5.41111 5.45735C9.17429 9.31795 13.5928 9.0278 14.0375 9.12985C13.9396 8.18934 13.9371 8.18713 13.9114 8.09759C13.3419 6.10612 14.5901 5.09493 15.1531 4.75264C16.3291 4.03779 18.1958 3.93003 19.4888 5.10777C19.768 5.36195 20.1457 5.46195 20.4991 5.37511C20.8163 5.29714 21.0767 5.21458 21.3316 5.12473L20.8009 6.62352L21.4783 6.62399C21.3505 6.79356 21.1972 6.99655 21.0127 7.23996Z" fill="#F2F4F5"/>
</svg>
