<svg version="1.2" xmlns="http://www.w3.org/2000/svg" viewBox="0 0 11 16" width="11" height="16"><defs><clipPath clipPathUnits="userSpaceOnUse" id="cp1"><path d="m-287-96h320v1024h-320z"/></clipPath></defs><style>.a{fill:#999}</style><g clip-path="url(#cp1)"><path class="a" d="m3.2 7.2v-4.8c0-1.3 1-2.4 2.3-2.4 1.3 0 2.3 1.1 2.3 2.4v4.8c0 1.4-1 2.5-2.3 2.5-1.3 0-2.3-1.1-2.3-2.5zm7.6 1c-0.4 2.4-2.2 4.3-4.5 4.6v1.7c0 0.4-0.4 0.8-0.8 0.8-0.4 0-0.8-0.4-0.8-0.8v-1.7c-2.3-0.3-4.2-2.2-4.5-4.6-0.1-0.5 0.3-1 0.7-1 0.4 0 0.7 0.3 0.8 0.7 0.3 1.9 1.9 3.4 3.8 3.4 1.9 0 3.5-1.5 3.8-3.4 0-0.4 0.4-0.7 0.7-0.7 0.5 0 0.9 0.5 0.8 1z"/></g></svg>